<mxfile host="app.diagrams.net" modified="2024-07-10T10:49:14.160Z" agent="Mozilla/5.0 (Windows NT 10.0; Win64; x64) AppleWebKit/537.36 (KHTML, like Gecko) Chrome/126.0.0.0 Safari/537.36" etag="cmrsaX5481ktwwiOhATu" version="24.6.4" type="github">
  <diagram name="Seite-1" id="x6g-HsyagBqjdCvWVlu0">
    <mxGraphModel dx="4655" dy="3205" grid="1" gridSize="10" guides="1" tooltips="1" connect="1" arrows="1" fold="1" page="1" pageScale="1" pageWidth="827" pageHeight="1169" math="0" shadow="0">
      <root>
        <mxCell id="0" />
        <mxCell id="1" parent="0" />
        <mxCell id="aalzgpLR3wd8BVvG0kky-26" value="" style="strokeWidth=2;html=1;shape=mxgraph.flowchart.annotation_1;align=left;pointerEvents=1;rotation=-180;" vertex="1" parent="1">
          <mxGeometry x="1590" y="-1155" width="90" height="1490" as="geometry" />
        </mxCell>
        <mxCell id="aalzgpLR3wd8BVvG0kky-27" value="Wetterdaten" style="text;html=1;align=center;verticalAlign=middle;whiteSpace=wrap;rounded=0;fontSize=62;" vertex="1" parent="1">
          <mxGeometry x="1680" y="-640" width="410" height="230" as="geometry" />
        </mxCell>
        <mxCell id="aalzgpLR3wd8BVvG0kky-17" value="&lt;font style=&quot;font-size: 31px;&quot;&gt;&lt;br&gt;&lt;/font&gt;" style="strokeWidth=1;shadow=0;dashed=0;align=center;html=1;shape=mxgraph.mockup.containers.browserWindow;rSize=0;strokeColor=#666666;strokeColor2=#008cff;strokeColor3=#c4c4c4;mainText=,;recursiveResize=0;" vertex="1" parent="1">
          <mxGeometry x="-760" y="-1130" width="2260" height="1440" as="geometry" />
        </mxCell>
        <mxCell id="aalzgpLR3wd8BVvG0kky-18" value="Page 1" style="strokeWidth=1;shadow=0;dashed=0;align=center;html=1;shape=mxgraph.mockup.containers.anchor;fontSize=17;fontColor=#666666;align=left;whiteSpace=wrap;" vertex="1" parent="aalzgpLR3wd8BVvG0kky-17">
          <mxGeometry x="60" y="12" width="110" height="26" as="geometry" />
        </mxCell>
        <mxCell id="aalzgpLR3wd8BVvG0kky-19" value="https://www.draw.io" style="strokeWidth=1;shadow=0;dashed=0;align=center;html=1;shape=mxgraph.mockup.containers.anchor;rSize=0;fontSize=17;fontColor=#666666;align=left;" vertex="1" parent="aalzgpLR3wd8BVvG0kky-17">
          <mxGeometry x="130" y="60" width="250" height="26" as="geometry" />
        </mxCell>
        <mxCell id="aalzgpLR3wd8BVvG0kky-21" value="" style="strokeWidth=1;shadow=0;dashed=0;align=center;html=1;shape=mxgraph.mockup.containers.rrect;rSize=0;strokeColor=#666666;fillColor=#f5f5f5;gradientColor=#b3b3b3;" vertex="1" parent="aalzgpLR3wd8BVvG0kky-17">
          <mxGeometry x="1920" y="120" width="330" height="1290" as="geometry" />
        </mxCell>
        <mxCell id="aalzgpLR3wd8BVvG0kky-23" value="Garden" style="strokeColor=#23445d;fillColor=#bac8d3;strokeWidth=1;shadow=0;dashed=0;align=center;html=1;shape=mxgraph.mockup.containers.rrect;rSize=0;fontSize=24;fontStyle=1;resizeWidth=1;whiteSpace=wrap;" vertex="1" parent="aalzgpLR3wd8BVvG0kky-21">
          <mxGeometry width="330" height="50" relative="1" as="geometry">
            <mxPoint as="offset" />
          </mxGeometry>
        </mxCell>
        <mxCell id="aalzgpLR3wd8BVvG0kky-24" value="weather data&amp;nbsp;" style="strokeWidth=1;shadow=0;dashed=0;align=center;html=1;shape=mxgraph.mockup.containers.rrect;rSize=0;fontSize=24;fontStyle=1;resizeWidth=1;whiteSpace=wrap;fillColor=#bac8d3;strokeColor=#23445d;" vertex="1" parent="aalzgpLR3wd8BVvG0kky-21">
          <mxGeometry width="330" height="50" relative="1" as="geometry">
            <mxPoint y="50" as="offset" />
          </mxGeometry>
        </mxCell>
        <mxCell id="aalzgpLR3wd8BVvG0kky-25" value="HIDE" style="strokeColor=#ae4132;fillColor=#fad9d5;strokeWidth=1;shadow=0;dashed=0;align=center;html=1;shape=mxgraph.mockup.containers.rrect;rSize=0;fontSize=24;fontStyle=1;resizeWidth=1;whiteSpace=wrap;" vertex="1" parent="aalzgpLR3wd8BVvG0kky-21">
          <mxGeometry y="1" width="330" height="47" relative="1" as="geometry">
            <mxPoint y="-47" as="offset" />
          </mxGeometry>
        </mxCell>
        <mxCell id="aalzgpLR3wd8BVvG0kky-66" value="&lt;div style=&quot;text-align: justify;&quot;&gt;&lt;span style=&quot;background-color: initial;&quot;&gt;Here you can see the weather data from this month.&amp;nbsp;&lt;/span&gt;&lt;/div&gt;" style="text;align=center;verticalAlign=middle;rounded=0;fontSize=24;html=1;whiteSpace=wrap;spacingTop=-999;" vertex="1" parent="aalzgpLR3wd8BVvG0kky-21">
          <mxGeometry x="10" y="120" width="300" height="1070" as="geometry" />
        </mxCell>
        <mxCell id="aalzgpLR3wd8BVvG0kky-72" value="" style="rounded=0;whiteSpace=wrap;html=1;" vertex="1" parent="aalzgpLR3wd8BVvG0kky-17">
          <mxGeometry x="160" y="570" width="870" height="60" as="geometry" />
        </mxCell>
        <mxCell id="aalzgpLR3wd8BVvG0kky-74" value="Time" style="text;html=1;align=center;verticalAlign=middle;whiteSpace=wrap;rounded=0;fontSize=24;" vertex="1" parent="aalzgpLR3wd8BVvG0kky-17">
          <mxGeometry x="500" y="560" width="170" height="95" as="geometry" />
        </mxCell>
        <mxCell id="aalzgpLR3wd8BVvG0kky-75" value="&lt;br&gt;&lt;div style=&quot;color: rgb(230, 237, 243); background-color: rgb(13, 17, 23); font-family: Consolas, &amp;quot;Courier New&amp;quot;, monospace; font-weight: normal; line-height: 19px; white-space: pre; font-size: 37px;&quot;&gt;&lt;div style=&quot;&quot;&gt;&lt;hr&gt;&lt;/div&gt;&lt;/div&gt;" style="rounded=1;whiteSpace=wrap;html=1;rotation=-90;" vertex="1" parent="aalzgpLR3wd8BVvG0kky-17">
          <mxGeometry x="-90" y="310" width="400" height="110" as="geometry" />
        </mxCell>
        <mxCell id="aalzgpLR3wd8BVvG0kky-77" value="Temperature" style="text;html=1;align=center;verticalAlign=middle;whiteSpace=wrap;rounded=0;rotation=-90;fontSize=28;" vertex="1" parent="aalzgpLR3wd8BVvG0kky-17">
          <mxGeometry x="-306.25" y="360" width="842.5" height="115" as="geometry" />
        </mxCell>
        <mxCell id="aalzgpLR3wd8BVvG0kky-78" value="" style="verticalLabelPosition=bottom;shadow=0;dashed=0;align=center;html=1;verticalAlign=top;strokeWidth=1;shape=mxgraph.mockup.graphics.pieChart;strokeColor=#008cff;parts=10,20,35;partColors=#e0e0e0,#d0d0d0,#c0c0c0,#b0b0b0,#a0a0a0;strokeWidth=2;" vertex="1" parent="aalzgpLR3wd8BVvG0kky-17">
          <mxGeometry x="1320" y="150" width="290" height="270" as="geometry" />
        </mxCell>
        <mxCell id="aalzgpLR3wd8BVvG0kky-79" value="&lt;div style=&quot;background-color: rgb(13, 17, 23); font-family: Consolas, &amp;quot;Courier New&amp;quot;, monospace; font-size: 31px; line-height: 19px; white-space: pre;&quot;&gt;&lt;span style=&quot;font-size: 31px;&quot;&gt;airHumidity&lt;/span&gt;&lt;/div&gt;" style="text;html=1;align=center;verticalAlign=middle;whiteSpace=wrap;rounded=0;fontSize=31;fontColor=#FFFFFF;" vertex="1" parent="aalzgpLR3wd8BVvG0kky-17">
          <mxGeometry x="1295" y="300" width="340" height="310" as="geometry" />
        </mxCell>
        <mxCell id="aalzgpLR3wd8BVvG0kky-80" value="" style="strokeWidth=1;shadow=0;dashed=0;align=center;html=1;shape=mxgraph.mockup.forms.rrect;rSize=5;strokeColor=#999999;fillColor=#ffffff;" vertex="1" parent="aalzgpLR3wd8BVvG0kky-17">
          <mxGeometry x="10" y="850" width="440" height="580" as="geometry" />
        </mxCell>
        <mxCell id="aalzgpLR3wd8BVvG0kky-81" value="October 2014" style="strokeWidth=1;shadow=0;dashed=0;align=center;html=1;shape=mxgraph.mockup.forms.anchor;fontColor=#999999;fontSize=22;" vertex="1" parent="aalzgpLR3wd8BVvG0kky-80">
          <mxGeometry x="82.5" y="26.514285714285712" width="275" height="66.28571428571428" as="geometry" />
        </mxCell>
        <mxCell id="aalzgpLR3wd8BVvG0kky-82" value="&lt;" style="strokeWidth=1;shadow=0;dashed=0;align=center;html=1;shape=mxgraph.mockup.forms.rrect;rSize=4;strokeColor=#999999;fontColor=#008cff;fontSize=19;fontStyle=1;" vertex="1" parent="aalzgpLR3wd8BVvG0kky-80">
          <mxGeometry x="22" y="26.514285714285712" width="68.75" height="66.28571428571428" as="geometry" />
        </mxCell>
        <mxCell id="aalzgpLR3wd8BVvG0kky-83" value="&gt;" style="strokeWidth=1;shadow=0;dashed=0;align=center;html=1;shape=mxgraph.mockup.forms.rrect;rSize=4;strokeColor=#999999;fontColor=#008cff;fontSize=19;fontStyle=1;" vertex="1" parent="aalzgpLR3wd8BVvG0kky-80">
          <mxGeometry x="349.25" y="26.514285714285712" width="68.75" height="66.28571428571428" as="geometry" />
        </mxCell>
        <mxCell id="aalzgpLR3wd8BVvG0kky-84" value="Mo" style="strokeWidth=1;shadow=0;dashed=0;align=center;html=1;shape=mxgraph.mockup.forms.anchor;fontColor=#999999;" vertex="1" parent="aalzgpLR3wd8BVvG0kky-80">
          <mxGeometry x="27.500000000000004" y="92.8" width="55.00000000000001" height="66.28571428571428" as="geometry" />
        </mxCell>
        <mxCell id="aalzgpLR3wd8BVvG0kky-85" value="Tu" style="strokeWidth=1;shadow=0;dashed=0;align=center;html=1;shape=mxgraph.mockup.forms.anchor;fontColor=#999999;" vertex="1" parent="aalzgpLR3wd8BVvG0kky-80">
          <mxGeometry x="82.5" y="92.8" width="55.00000000000001" height="66.28571428571428" as="geometry" />
        </mxCell>
        <mxCell id="aalzgpLR3wd8BVvG0kky-86" value="We" style="strokeWidth=1;shadow=0;dashed=0;align=center;html=1;shape=mxgraph.mockup.forms.anchor;fontColor=#999999;" vertex="1" parent="aalzgpLR3wd8BVvG0kky-80">
          <mxGeometry x="137.5" y="92.8" width="55.00000000000001" height="66.28571428571428" as="geometry" />
        </mxCell>
        <mxCell id="aalzgpLR3wd8BVvG0kky-87" value="Th" style="strokeWidth=1;shadow=0;dashed=0;align=center;html=1;shape=mxgraph.mockup.forms.anchor;fontColor=#999999;" vertex="1" parent="aalzgpLR3wd8BVvG0kky-80">
          <mxGeometry x="192.50000000000003" y="92.8" width="55.00000000000001" height="66.28571428571428" as="geometry" />
        </mxCell>
        <mxCell id="aalzgpLR3wd8BVvG0kky-88" value="Fr" style="strokeWidth=1;shadow=0;dashed=0;align=center;html=1;shape=mxgraph.mockup.forms.anchor;fontColor=#999999;" vertex="1" parent="aalzgpLR3wd8BVvG0kky-80">
          <mxGeometry x="247.50000000000003" y="92.8" width="55.00000000000001" height="66.28571428571428" as="geometry" />
        </mxCell>
        <mxCell id="aalzgpLR3wd8BVvG0kky-89" value="Sa" style="strokeWidth=1;shadow=0;dashed=0;align=center;html=1;shape=mxgraph.mockup.forms.anchor;fontColor=#999999;" vertex="1" parent="aalzgpLR3wd8BVvG0kky-80">
          <mxGeometry x="302.5" y="92.8" width="55.00000000000001" height="66.28571428571428" as="geometry" />
        </mxCell>
        <mxCell id="aalzgpLR3wd8BVvG0kky-90" value="Su" style="strokeWidth=1;shadow=0;dashed=0;align=center;html=1;shape=mxgraph.mockup.forms.anchor;fontColor=#999999;" vertex="1" parent="aalzgpLR3wd8BVvG0kky-80">
          <mxGeometry x="357.50000000000006" y="92.8" width="55.00000000000001" height="66.28571428571428" as="geometry" />
        </mxCell>
        <mxCell id="aalzgpLR3wd8BVvG0kky-91" value="1" style="strokeWidth=1;shadow=0;dashed=0;align=center;html=1;shape=mxgraph.mockup.forms.rrect;rSize=0;strokeColor=#999999;fontColor=#999999;fontSize=23;" vertex="1" parent="aalzgpLR3wd8BVvG0kky-80">
          <mxGeometry x="27.500000000000004" y="159.08571428571426" width="55.00000000000001" height="66.28571428571428" as="geometry" />
        </mxCell>
        <mxCell id="aalzgpLR3wd8BVvG0kky-92" value="2" style="strokeWidth=1;shadow=0;dashed=0;align=center;html=1;shape=mxgraph.mockup.forms.rrect;rSize=0;strokeColor=#999999;fontColor=#999999;" vertex="1" parent="aalzgpLR3wd8BVvG0kky-80">
          <mxGeometry x="82.5" y="159.08571428571426" width="55.00000000000001" height="66.28571428571428" as="geometry" />
        </mxCell>
        <mxCell id="aalzgpLR3wd8BVvG0kky-93" value="3" style="strokeWidth=1;shadow=0;dashed=0;align=center;html=1;shape=mxgraph.mockup.forms.rrect;rSize=0;strokeColor=#999999;fontColor=#999999;" vertex="1" parent="aalzgpLR3wd8BVvG0kky-80">
          <mxGeometry x="137.5" y="159.08571428571426" width="55.00000000000001" height="66.28571428571428" as="geometry" />
        </mxCell>
        <mxCell id="aalzgpLR3wd8BVvG0kky-94" value="4" style="strokeWidth=1;shadow=0;dashed=0;align=center;html=1;shape=mxgraph.mockup.forms.rrect;rSize=0;strokeColor=#999999;fontColor=#999999;" vertex="1" parent="aalzgpLR3wd8BVvG0kky-80">
          <mxGeometry x="192.50000000000003" y="159.08571428571426" width="55.00000000000001" height="66.28571428571428" as="geometry" />
        </mxCell>
        <mxCell id="aalzgpLR3wd8BVvG0kky-95" value="5" style="strokeWidth=1;shadow=0;dashed=0;align=center;html=1;shape=mxgraph.mockup.forms.rrect;rSize=0;strokeColor=#999999;fontColor=#999999;" vertex="1" parent="aalzgpLR3wd8BVvG0kky-80">
          <mxGeometry x="247.50000000000003" y="159.08571428571426" width="55.00000000000001" height="66.28571428571428" as="geometry" />
        </mxCell>
        <mxCell id="aalzgpLR3wd8BVvG0kky-96" value="6" style="strokeWidth=1;shadow=0;dashed=0;align=center;html=1;shape=mxgraph.mockup.forms.rrect;rSize=0;strokeColor=#999999;fontColor=#999999;" vertex="1" parent="aalzgpLR3wd8BVvG0kky-80">
          <mxGeometry x="302.5" y="159.08571428571426" width="55.00000000000001" height="66.28571428571428" as="geometry" />
        </mxCell>
        <mxCell id="aalzgpLR3wd8BVvG0kky-97" value="7" style="strokeWidth=1;shadow=0;dashed=0;align=center;html=1;shape=mxgraph.mockup.forms.rrect;rSize=0;strokeColor=#999999;fontColor=#999999;" vertex="1" parent="aalzgpLR3wd8BVvG0kky-80">
          <mxGeometry x="357.50000000000006" y="159.08571428571426" width="55.00000000000001" height="66.28571428571428" as="geometry" />
        </mxCell>
        <mxCell id="aalzgpLR3wd8BVvG0kky-98" value="8" style="strokeWidth=1;shadow=0;dashed=0;align=center;html=1;shape=mxgraph.mockup.forms.rrect;rSize=0;strokeColor=#999999;fontColor=#999999;" vertex="1" parent="aalzgpLR3wd8BVvG0kky-80">
          <mxGeometry x="27.500000000000004" y="225.37142857142854" width="55.00000000000001" height="66.28571428571428" as="geometry" />
        </mxCell>
        <mxCell id="aalzgpLR3wd8BVvG0kky-99" value="9" style="strokeWidth=1;shadow=0;dashed=0;align=center;html=1;shape=mxgraph.mockup.forms.rrect;rSize=0;strokeColor=#999999;fontColor=#999999;" vertex="1" parent="aalzgpLR3wd8BVvG0kky-80">
          <mxGeometry x="82.5" y="225.37142857142854" width="55.00000000000001" height="66.28571428571428" as="geometry" />
        </mxCell>
        <mxCell id="aalzgpLR3wd8BVvG0kky-100" value="10" style="strokeWidth=1;shadow=0;dashed=0;align=center;html=1;shape=mxgraph.mockup.forms.rrect;rSize=0;strokeColor=#999999;fontColor=#999999;" vertex="1" parent="aalzgpLR3wd8BVvG0kky-80">
          <mxGeometry x="137.5" y="225.37142857142854" width="55.00000000000001" height="66.28571428571428" as="geometry" />
        </mxCell>
        <mxCell id="aalzgpLR3wd8BVvG0kky-101" value="11" style="strokeWidth=1;shadow=0;dashed=0;align=center;html=1;shape=mxgraph.mockup.forms.rrect;rSize=0;strokeColor=#999999;fontColor=#999999;" vertex="1" parent="aalzgpLR3wd8BVvG0kky-80">
          <mxGeometry x="192.50000000000003" y="225.37142857142854" width="55.00000000000001" height="66.28571428571428" as="geometry" />
        </mxCell>
        <mxCell id="aalzgpLR3wd8BVvG0kky-102" value="12" style="strokeWidth=1;shadow=0;dashed=0;align=center;html=1;shape=mxgraph.mockup.forms.rrect;rSize=0;strokeColor=#999999;fontColor=#999999;" vertex="1" parent="aalzgpLR3wd8BVvG0kky-80">
          <mxGeometry x="247.50000000000003" y="225.37142857142854" width="55.00000000000001" height="66.28571428571428" as="geometry" />
        </mxCell>
        <mxCell id="aalzgpLR3wd8BVvG0kky-103" value="13" style="strokeWidth=1;shadow=0;dashed=0;align=center;html=1;shape=mxgraph.mockup.forms.rrect;rSize=0;strokeColor=#999999;fontColor=#999999;" vertex="1" parent="aalzgpLR3wd8BVvG0kky-80">
          <mxGeometry x="302.5" y="225.37142857142854" width="55.00000000000001" height="66.28571428571428" as="geometry" />
        </mxCell>
        <mxCell id="aalzgpLR3wd8BVvG0kky-104" value="14" style="strokeWidth=1;shadow=0;dashed=0;align=center;html=1;shape=mxgraph.mockup.forms.rrect;rSize=0;strokeColor=#999999;fontColor=#999999;" vertex="1" parent="aalzgpLR3wd8BVvG0kky-80">
          <mxGeometry x="357.50000000000006" y="225.37142857142854" width="55.00000000000001" height="66.28571428571428" as="geometry" />
        </mxCell>
        <mxCell id="aalzgpLR3wd8BVvG0kky-105" value="15" style="strokeWidth=1;shadow=0;dashed=0;align=center;html=1;shape=mxgraph.mockup.forms.rrect;rSize=0;strokeColor=#999999;fontColor=#999999;" vertex="1" parent="aalzgpLR3wd8BVvG0kky-80">
          <mxGeometry x="27.500000000000004" y="291.65714285714284" width="55.00000000000001" height="66.28571428571428" as="geometry" />
        </mxCell>
        <mxCell id="aalzgpLR3wd8BVvG0kky-106" value="16" style="strokeWidth=1;shadow=0;dashed=0;align=center;html=1;shape=mxgraph.mockup.forms.rrect;rSize=0;strokeColor=#999999;fontColor=#999999;" vertex="1" parent="aalzgpLR3wd8BVvG0kky-80">
          <mxGeometry x="82.5" y="291.65714285714284" width="55.00000000000001" height="66.28571428571428" as="geometry" />
        </mxCell>
        <mxCell id="aalzgpLR3wd8BVvG0kky-107" value="17" style="strokeWidth=1;shadow=0;dashed=0;align=center;html=1;shape=mxgraph.mockup.forms.rrect;rSize=0;strokeColor=#999999;fontColor=#999999;" vertex="1" parent="aalzgpLR3wd8BVvG0kky-80">
          <mxGeometry x="137.5" y="291.65714285714284" width="55.00000000000001" height="66.28571428571428" as="geometry" />
        </mxCell>
        <mxCell id="aalzgpLR3wd8BVvG0kky-108" value="18" style="strokeWidth=1;shadow=0;dashed=0;align=center;html=1;shape=mxgraph.mockup.forms.rrect;rSize=0;strokeColor=#999999;fontColor=#999999;" vertex="1" parent="aalzgpLR3wd8BVvG0kky-80">
          <mxGeometry x="192.50000000000003" y="291.65714285714284" width="55.00000000000001" height="66.28571428571428" as="geometry" />
        </mxCell>
        <mxCell id="aalzgpLR3wd8BVvG0kky-109" value="19" style="strokeWidth=1;shadow=0;dashed=0;align=center;html=1;shape=mxgraph.mockup.forms.rrect;rSize=0;strokeColor=#999999;fontColor=#999999;" vertex="1" parent="aalzgpLR3wd8BVvG0kky-80">
          <mxGeometry x="247.50000000000003" y="291.65714285714284" width="55.00000000000001" height="66.28571428571428" as="geometry" />
        </mxCell>
        <mxCell id="aalzgpLR3wd8BVvG0kky-110" value="20" style="strokeWidth=1;shadow=0;dashed=0;align=center;html=1;shape=mxgraph.mockup.forms.rrect;rSize=0;strokeColor=#999999;fontColor=#999999;" vertex="1" parent="aalzgpLR3wd8BVvG0kky-80">
          <mxGeometry x="302.5" y="291.65714285714284" width="55.00000000000001" height="66.28571428571428" as="geometry" />
        </mxCell>
        <mxCell id="aalzgpLR3wd8BVvG0kky-111" value="21" style="strokeWidth=1;shadow=0;dashed=0;align=center;html=1;shape=mxgraph.mockup.forms.rrect;rSize=0;strokeColor=#999999;fontColor=#999999;" vertex="1" parent="aalzgpLR3wd8BVvG0kky-80">
          <mxGeometry x="357.50000000000006" y="291.65714285714284" width="55.00000000000001" height="66.28571428571428" as="geometry" />
        </mxCell>
        <mxCell id="aalzgpLR3wd8BVvG0kky-112" value="22" style="strokeWidth=1;shadow=0;dashed=0;align=center;html=1;shape=mxgraph.mockup.forms.rrect;rSize=0;strokeColor=#999999;fontColor=#999999;" vertex="1" parent="aalzgpLR3wd8BVvG0kky-80">
          <mxGeometry x="27.500000000000004" y="357.9428571428571" width="55.00000000000001" height="66.28571428571428" as="geometry" />
        </mxCell>
        <mxCell id="aalzgpLR3wd8BVvG0kky-113" value="23" style="strokeWidth=1;shadow=0;dashed=0;align=center;html=1;shape=mxgraph.mockup.forms.rrect;rSize=0;strokeColor=#999999;fontColor=#999999;" vertex="1" parent="aalzgpLR3wd8BVvG0kky-80">
          <mxGeometry x="82.5" y="357.9428571428571" width="55.00000000000001" height="66.28571428571428" as="geometry" />
        </mxCell>
        <mxCell id="aalzgpLR3wd8BVvG0kky-114" value="25" style="strokeWidth=1;shadow=0;dashed=0;align=center;html=1;shape=mxgraph.mockup.forms.rrect;rSize=0;strokeColor=#999999;fontColor=#999999;" vertex="1" parent="aalzgpLR3wd8BVvG0kky-80">
          <mxGeometry x="192.50000000000003" y="357.9428571428571" width="55.00000000000001" height="66.28571428571428" as="geometry" />
        </mxCell>
        <mxCell id="aalzgpLR3wd8BVvG0kky-115" value="26" style="strokeWidth=1;shadow=0;dashed=0;align=center;html=1;shape=mxgraph.mockup.forms.rrect;rSize=0;strokeColor=#999999;fontColor=#999999;" vertex="1" parent="aalzgpLR3wd8BVvG0kky-80">
          <mxGeometry x="247.50000000000003" y="357.9428571428571" width="55.00000000000001" height="66.28571428571428" as="geometry" />
        </mxCell>
        <mxCell id="aalzgpLR3wd8BVvG0kky-116" value="27" style="strokeWidth=1;shadow=0;dashed=0;align=center;html=1;shape=mxgraph.mockup.forms.rrect;rSize=0;strokeColor=#999999;fontColor=#999999;" vertex="1" parent="aalzgpLR3wd8BVvG0kky-80">
          <mxGeometry x="302.5" y="357.9428571428571" width="55.00000000000001" height="66.28571428571428" as="geometry" />
        </mxCell>
        <mxCell id="aalzgpLR3wd8BVvG0kky-117" value="28" style="strokeWidth=1;shadow=0;dashed=0;align=center;html=1;shape=mxgraph.mockup.forms.rrect;rSize=0;strokeColor=#999999;fontColor=#999999;" vertex="1" parent="aalzgpLR3wd8BVvG0kky-80">
          <mxGeometry x="357.50000000000006" y="357.9428571428571" width="55.00000000000001" height="66.28571428571428" as="geometry" />
        </mxCell>
        <mxCell id="aalzgpLR3wd8BVvG0kky-118" value="29" style="strokeWidth=1;shadow=0;dashed=0;align=center;html=1;shape=mxgraph.mockup.forms.rrect;rSize=0;strokeColor=#999999;fontColor=#999999;" vertex="1" parent="aalzgpLR3wd8BVvG0kky-80">
          <mxGeometry x="27.500000000000004" y="424.2285714285714" width="55.00000000000001" height="66.28571428571428" as="geometry" />
        </mxCell>
        <mxCell id="aalzgpLR3wd8BVvG0kky-119" value="30" style="strokeWidth=1;shadow=0;dashed=0;align=center;html=1;shape=mxgraph.mockup.forms.rrect;rSize=0;strokeColor=#999999;fontColor=#999999;" vertex="1" parent="aalzgpLR3wd8BVvG0kky-80">
          <mxGeometry x="82.5" y="424.2285714285714" width="55.00000000000001" height="66.28571428571428" as="geometry" />
        </mxCell>
        <mxCell id="aalzgpLR3wd8BVvG0kky-120" value="31" style="strokeWidth=1;shadow=0;dashed=0;align=center;html=1;shape=mxgraph.mockup.forms.rrect;rSize=0;strokeColor=#999999;fontColor=#999999;" vertex="1" parent="aalzgpLR3wd8BVvG0kky-80">
          <mxGeometry x="137.5" y="424.2285714285714" width="55.00000000000001" height="66.28571428571428" as="geometry" />
        </mxCell>
        <mxCell id="aalzgpLR3wd8BVvG0kky-121" value="1" style="strokeWidth=1;shadow=0;dashed=0;align=center;html=1;shape=mxgraph.mockup.forms.rrect;rSize=0;strokeColor=#999999;fontColor=#999999;fillColor=#ddeeff;" vertex="1" parent="aalzgpLR3wd8BVvG0kky-80">
          <mxGeometry x="192.50000000000003" y="424.2285714285714" width="55.00000000000001" height="66.28571428571428" as="geometry" />
        </mxCell>
        <mxCell id="aalzgpLR3wd8BVvG0kky-122" value="2" style="strokeWidth=1;shadow=0;dashed=0;align=center;html=1;shape=mxgraph.mockup.forms.rrect;rSize=0;strokeColor=#999999;fontColor=#999999;fillColor=#ddeeff;" vertex="1" parent="aalzgpLR3wd8BVvG0kky-80">
          <mxGeometry x="247.50000000000003" y="424.2285714285714" width="55.00000000000001" height="66.28571428571428" as="geometry" />
        </mxCell>
        <mxCell id="aalzgpLR3wd8BVvG0kky-123" value="3" style="strokeWidth=1;shadow=0;dashed=0;align=center;html=1;shape=mxgraph.mockup.forms.rrect;rSize=0;strokeColor=#999999;fontColor=#999999;fillColor=#ddeeff;" vertex="1" parent="aalzgpLR3wd8BVvG0kky-80">
          <mxGeometry x="302.5" y="424.2285714285714" width="55.00000000000001" height="66.28571428571428" as="geometry" />
        </mxCell>
        <mxCell id="aalzgpLR3wd8BVvG0kky-124" value="4" style="strokeWidth=1;shadow=0;dashed=0;align=center;html=1;shape=mxgraph.mockup.forms.rrect;rSize=0;strokeColor=#999999;fontColor=#999999;fillColor=#ddeeff;" vertex="1" parent="aalzgpLR3wd8BVvG0kky-80">
          <mxGeometry x="357.50000000000006" y="424.2285714285714" width="55.00000000000001" height="66.28571428571428" as="geometry" />
        </mxCell>
        <mxCell id="aalzgpLR3wd8BVvG0kky-125" value="5" style="strokeWidth=1;shadow=0;dashed=0;align=center;html=1;shape=mxgraph.mockup.forms.rrect;rSize=0;strokeColor=#999999;fontColor=#999999;fillColor=#ddeeff;" vertex="1" parent="aalzgpLR3wd8BVvG0kky-80">
          <mxGeometry x="27.500000000000004" y="490.51428571428573" width="55.00000000000001" height="66.28571428571428" as="geometry" />
        </mxCell>
        <mxCell id="aalzgpLR3wd8BVvG0kky-126" value="6" style="strokeWidth=1;shadow=0;dashed=0;align=center;html=1;shape=mxgraph.mockup.forms.rrect;rSize=0;strokeColor=#999999;fontColor=#999999;fillColor=#ddeeff;" vertex="1" parent="aalzgpLR3wd8BVvG0kky-80">
          <mxGeometry x="82.5" y="490.51428571428573" width="55.00000000000001" height="66.28571428571428" as="geometry" />
        </mxCell>
        <mxCell id="aalzgpLR3wd8BVvG0kky-127" value="7" style="strokeWidth=1;shadow=0;dashed=0;align=center;html=1;shape=mxgraph.mockup.forms.rrect;rSize=0;strokeColor=#999999;fontColor=#999999;fillColor=#ddeeff;" vertex="1" parent="aalzgpLR3wd8BVvG0kky-80">
          <mxGeometry x="137.5" y="490.51428571428573" width="55.00000000000001" height="66.28571428571428" as="geometry" />
        </mxCell>
        <mxCell id="aalzgpLR3wd8BVvG0kky-128" value="8" style="strokeWidth=1;shadow=0;dashed=0;align=center;html=1;shape=mxgraph.mockup.forms.rrect;rSize=0;strokeColor=#999999;fontColor=#999999;fillColor=#ddeeff;" vertex="1" parent="aalzgpLR3wd8BVvG0kky-80">
          <mxGeometry x="192.50000000000003" y="490.51428571428573" width="55.00000000000001" height="66.28571428571428" as="geometry" />
        </mxCell>
        <mxCell id="aalzgpLR3wd8BVvG0kky-129" value="9" style="strokeWidth=1;shadow=0;dashed=0;align=center;html=1;shape=mxgraph.mockup.forms.rrect;rSize=0;strokeColor=#999999;fontColor=#999999;fillColor=#ddeeff;" vertex="1" parent="aalzgpLR3wd8BVvG0kky-80">
          <mxGeometry x="247.50000000000003" y="490.51428571428573" width="55.00000000000001" height="66.28571428571428" as="geometry" />
        </mxCell>
        <mxCell id="aalzgpLR3wd8BVvG0kky-130" value="10" style="strokeWidth=1;shadow=0;dashed=0;align=center;html=1;shape=mxgraph.mockup.forms.rrect;rSize=0;strokeColor=#999999;fontColor=#999999;fillColor=#ddeeff;" vertex="1" parent="aalzgpLR3wd8BVvG0kky-80">
          <mxGeometry x="302.5" y="490.51428571428573" width="55.00000000000001" height="66.28571428571428" as="geometry" />
        </mxCell>
        <mxCell id="aalzgpLR3wd8BVvG0kky-131" value="11" style="strokeWidth=1;shadow=0;dashed=0;align=center;html=1;shape=mxgraph.mockup.forms.rrect;rSize=0;strokeColor=#999999;fontColor=#999999;fillColor=#ddeeff;" vertex="1" parent="aalzgpLR3wd8BVvG0kky-80">
          <mxGeometry x="357.50000000000006" y="490.51428571428573" width="55.00000000000001" height="66.28571428571428" as="geometry" />
        </mxCell>
        <mxCell id="aalzgpLR3wd8BVvG0kky-132" value="24" style="strokeWidth=1;shadow=0;dashed=0;align=center;html=1;shape=mxgraph.mockup.forms.rrect;rSize=0;strokeColor=#ff0000;fontColor=#ffffff;strokeWidth=2;fillColor=#008cff;" vertex="1" parent="aalzgpLR3wd8BVvG0kky-80">
          <mxGeometry x="137.5" y="357.9428571428571" width="55.00000000000001" height="66.28571428571428" as="geometry" />
        </mxCell>
        <mxCell id="aalzgpLR3wd8BVvG0kky-59" value="" style="strokeWidth=1;shadow=0;dashed=0;align=center;html=1;shape=mxgraph.mockup.containers.browserWindow;rSize=0;strokeColor=#666666;strokeColor2=#008cff;strokeColor3=#c4c4c4;mainText=,;recursiveResize=0;" vertex="1" parent="1">
          <mxGeometry x="-760" y="380" width="2260" height="1440" as="geometry" />
        </mxCell>
        <mxCell id="aalzgpLR3wd8BVvG0kky-60" value="Page 1" style="strokeWidth=1;shadow=0;dashed=0;align=center;html=1;shape=mxgraph.mockup.containers.anchor;fontSize=17;fontColor=#666666;align=left;whiteSpace=wrap;" vertex="1" parent="aalzgpLR3wd8BVvG0kky-59">
          <mxGeometry x="60" y="12" width="110" height="26" as="geometry" />
        </mxCell>
        <mxCell id="aalzgpLR3wd8BVvG0kky-61" value="https://www.draw.io" style="strokeWidth=1;shadow=0;dashed=0;align=center;html=1;shape=mxgraph.mockup.containers.anchor;rSize=0;fontSize=17;fontColor=#666666;align=left;" vertex="1" parent="aalzgpLR3wd8BVvG0kky-59">
          <mxGeometry x="130" y="60" width="250" height="26" as="geometry" />
        </mxCell>
        <mxCell id="aalzgpLR3wd8BVvG0kky-62" value="" style="strokeWidth=1;shadow=0;dashed=0;align=center;html=1;shape=mxgraph.mockup.containers.rrect;rSize=0;strokeColor=#666666;fillColor=#f5f5f5;gradientColor=#b3b3b3;" vertex="1" parent="aalzgpLR3wd8BVvG0kky-59">
          <mxGeometry x="1930" y="120" width="330" height="1290" as="geometry" />
        </mxCell>
        <mxCell id="aalzgpLR3wd8BVvG0kky-63" value="Garden" style="strokeColor=#23445d;fillColor=#bac8d3;strokeWidth=1;shadow=0;dashed=0;align=center;html=1;shape=mxgraph.mockup.containers.rrect;rSize=0;fontSize=24;fontStyle=1;resizeWidth=1;whiteSpace=wrap;" vertex="1" parent="aalzgpLR3wd8BVvG0kky-62">
          <mxGeometry width="330" height="50" relative="1" as="geometry">
            <mxPoint as="offset" />
          </mxGeometry>
        </mxCell>
        <mxCell id="aalzgpLR3wd8BVvG0kky-64" value="weather data&amp;nbsp;" style="strokeWidth=1;shadow=0;dashed=0;align=center;html=1;shape=mxgraph.mockup.containers.rrect;rSize=0;fontSize=24;fontStyle=1;resizeWidth=1;whiteSpace=wrap;fillColor=#bac8d3;strokeColor=#23445d;" vertex="1" parent="aalzgpLR3wd8BVvG0kky-62">
          <mxGeometry width="330" height="50" relative="1" as="geometry">
            <mxPoint y="1190" as="offset" />
          </mxGeometry>
        </mxCell>
        <mxCell id="aalzgpLR3wd8BVvG0kky-65" value="HIDE" style="strokeColor=#ae4132;fillColor=#fad9d5;strokeWidth=1;shadow=0;dashed=0;align=center;html=1;shape=mxgraph.mockup.containers.rrect;rSize=0;fontSize=24;fontStyle=1;resizeWidth=1;whiteSpace=wrap;" vertex="1" parent="aalzgpLR3wd8BVvG0kky-62">
          <mxGeometry y="1" width="330" height="47" relative="1" as="geometry">
            <mxPoint y="-47" as="offset" />
          </mxGeometry>
        </mxCell>
        <mxCell id="aalzgpLR3wd8BVvG0kky-67" value="Here you can see our garden and where everything is, like a map" style="text;html=1;align=left;verticalAlign=middle;whiteSpace=wrap;rounded=0;fontSize=27;spacingTop=-800;" vertex="1" parent="aalzgpLR3wd8BVvG0kky-62">
          <mxGeometry y="110" width="330" height="800" as="geometry" />
        </mxCell>
        <mxCell id="aalzgpLR3wd8BVvG0kky-68" value="" style="strokeWidth=2;html=1;shape=mxgraph.flowchart.annotation_1;align=left;pointerEvents=1;rotation=-180;" vertex="1" parent="1">
          <mxGeometry x="1590" y="355" width="90" height="1490" as="geometry" />
        </mxCell>
        <mxCell id="aalzgpLR3wd8BVvG0kky-69" value="Garden" style="text;html=1;align=center;verticalAlign=middle;whiteSpace=wrap;rounded=0;fontSize=47;" vertex="1" parent="1">
          <mxGeometry x="1610" y="770" width="390" height="490" as="geometry" />
        </mxCell>
        <mxCell id="aalzgpLR3wd8BVvG0kky-71" value="" style="verticalLabelPosition=bottom;shadow=0;dashed=0;align=center;html=1;verticalAlign=top;strokeWidth=1;shape=mxgraph.mockup.graphics.lineChart;strokeColor=none;strokeColor2=#666666;strokeColor3=#008cff;strokeColor4=#dddddd;" vertex="1" parent="1">
          <mxGeometry x="-570" y="-970" width="860" height="380" as="geometry" />
        </mxCell>
      </root>
    </mxGraphModel>
  </diagram>
</mxfile>
